<?xml version="1.0" encoding="UTF-8"?>
<!DOCTYPE svg PUBLIC "-//W3C//DTD SVG 1.1//EN" "http://www.w3.org/Graphics/SVG/1.1/DTD/svg11.dtd">
<!-- Creator: CorelDRAW X7 -->
<svg xmlns="http://www.w3.org/2000/svg" xml:space="preserve" width="243.768mm" height="108mm" version="1.1" style="shape-rendering:geometricPrecision; text-rendering:geometricPrecision; image-rendering:optimizeQuality; fill-rule:evenodd; clip-rule:evenodd"
viewBox="0 0 23965 10618"
 xmlns:xlink="http://www.w3.org/1999/xlink">
 <defs>
  <style type="text/css">
   <![CDATA[
    .fil0 {fill:#FEFEFE}
   ]]>
  </style>
 </defs>
 <g id="Capa_x0020_1">
  <metadata id="CorelCorpID_0Corel-Layer"/>
  <path class="fil0" d="M2859 6533c337,0 626,-119 866,-359 239,-240 359,-529 359,-866 0,-337 -120,-626 -359,-866 -240,-239 -529,-359 -866,-359 -337,0 -626,120 -866,359 -239,240 -359,529 -359,866 0,337 120,626 359,866 240,240 529,359 866,359zm6463 -344c-541,204 -1147,-70 -1351,-611 -204,-541 71,-1146 612,-1351 540,-203 1146,71 1350,612 204,541 -70,1147 -611,1350zm799 -3564c-699,-315 -1479,-341 -2197,-70 -718,271 -1287,805 -1604,1503 -1352,2989 2535,4815 4497,6171 578,-2313 2291,-6251 -696,-7604zm10722 7465c0,0 99,113 287,113 156,0 265,-91 265,-218 0,-256 -417,-209 -417,-381 0,-86 75,-120 154,-120 128,0 194,71 194,71l48 -80c0,0 -76,-85 -239,-85 -141,0 -265,76 -265,214 0,253 417,212 417,381 0,82 -72,124 -155,124 -145,0 -232,-94 -232,-94l-57 75zm-953 -298c0,235 184,411 411,411 226,0 410,-176 410,-411 0,-229 -184,-402 -410,-402 -227,0 -411,173 -411,402zm108 0c0,-175 136,-306 303,-306 166,0 302,131 302,306 0,181 -136,317 -302,317 -167,0 -303,-136 -303,-317zm-411 -561l109 0 0 -131 -109 0 0 131zm3 953l105 0 0 -775 -105 0 0 775zm-549 0l105 0 0 -327c0,-49 6,-102 21,-151 34,-114 116,-200 225,-200 20,0 39,3 39,3l0 -104c0,0 -20,-4 -42,-4 -122,0 -208,89 -245,206l-3 0c0,0 3,-27 3,-61l0 -137 -103 0 0 775zm-1017 -392c0,235 184,411 411,411 226,0 410,-176 410,-411 0,-229 -184,-402 -410,-402 -227,0 -411,173 -411,402zm108 0c0,-175 136,-306 303,-306 166,0 302,131 302,306 0,181 -136,317 -302,317 -167,0 -303,-136 -303,-317zm-797 298c0,0 99,113 287,113 156,0 265,-91 265,-218 0,-256 -418,-209 -418,-381 0,-86 76,-120 155,-120 128,0 194,71 194,71l48 -80c0,0 -76,-85 -239,-85 -141,0 -266,76 -266,214 0,253 418,212 418,381 0,82 -72,124 -155,124 -145,0 -232,-94 -232,-94l-57 75zm-843 -293c0,239 174,406 405,406 175,0 287,-108 287,-108l-48 -80c0,0 -94,94 -236,94 -160,0 -296,-108 -300,-307l595 0c0,0 3,-36 3,-54 0,-193 -110,-358 -324,-358 -210,0 -382,153 -382,407zm112 -82c25,-155 137,-237 267,-237 116,0 214,75 221,237l-488 0zm-959 82c0,241 177,406 407,406 198,0 302,-122 302,-122l-47 -82c0,0 -91,110 -249,110 -171,0 -305,-130 -305,-312 0,-185 133,-311 302,-311 141,0 227,94 227,94l54 -79c0,0 -94,-111 -284,-111 -228,0 -407,168 -407,407zm-846 0c0,241 177,406 407,406 197,0 302,-122 302,-122l-48 -82c0,0 -91,110 -248,110 -171,0 -306,-130 -306,-312 0,-185 133,-311 303,-311 140,0 226,94 226,94l54 -79c0,0 -94,-111 -283,-111 -229,0 -407,168 -407,407zm-812 176c0,154 135,230 264,230 194,0 259,-168 259,-168l3 0c0,0 -3,26 -3,64l0 85 100 0 0 -496c0,-195 -103,-298 -290,-298 -174,0 -276,88 -276,88l50 80c0,0 91,-74 219,-74 111,0 193,51 193,201l0 20 -44 0c-134,0 -475,6 -475,268zm108 -6c0,-171 244,-176 366,-176l45 0 0 34c0,134 -90,288 -238,288 -116,0 -173,-74 -173,-146zm-1374 217l105 0 0 -371c0,-37 3,-73 13,-105 35,-128 149,-219 282,-219 149,0 168,108 168,230l0 465 105 0 0 -493c0,-191 -68,-301 -259,-301 -184,0 -282,125 -310,196l-3 0c0,0 3,-28 3,-62l0 -115 -104 0 0 775zm-906 -387c0,239 174,406 405,406 175,0 287,-108 287,-108l-48 -80c0,0 -94,94 -236,94 -160,0 -296,-108 -300,-307l595 0c0,0 3,-36 3,-54 0,-193 -109,-358 -324,-358 -210,0 -382,153 -382,407zm112 -82c25,-155 137,-237 267,-237 116,0 214,75 221,237l-488 0zm-3146 375c0,0 99,113 287,113 156,0 265,-91 265,-218 0,-256 -418,-209 -418,-381 0,-86 76,-120 155,-120 128,0 194,71 194,71l48 -80c0,0 -76,-85 -239,-85 -141,0 -266,76 -266,214 0,253 418,212 418,381 0,82 -72,124 -155,124 -145,0 -232,-94 -232,-94l-57 75zm-843 -293c0,239 174,406 405,406 175,0 287,-108 287,-108l-48 -80c0,0 -94,94 -236,94 -160,0 -296,-108 -300,-307l595 0c0,0 3,-36 3,-54 0,-193 -110,-358 -324,-358 -210,0 -382,153 -382,407zm112 -82c25,-155 138,-237 267,-237 116,0 214,75 221,237l-488 0zm-973 469l105 0 0 -371c0,-37 3,-73 12,-105 36,-128 150,-219 283,-219 149,0 168,108 168,230l0 465 105 0 0 -493c0,-191 -68,-301 -260,-301 -183,0 -282,125 -309,196l-4 0c0,0 4,-28 4,-62l0 -115 -104 0 0 775zm-1016 -392c0,235 184,411 410,411 227,0 410,-176 410,-411 0,-229 -183,-402 -410,-402 -226,0 -410,173 -410,402zm108 0c0,-175 136,-306 302,-306 167,0 302,131 302,306 0,181 -135,317 -302,317 -166,0 -302,-136 -302,-317zm-412 -561l110 0 0 -131 -110 0 0 131zm3 953l105 0 0 -775 -105 0 0 775zm-900 -387c0,241 177,406 407,406 197,0 302,-122 302,-122l-48 -82c0,0 -91,110 -248,110 -171,0 -305,-130 -305,-312 0,-185 132,-311 302,-311 140,0 227,94 227,94l54 -79c0,0 -94,-111 -284,-111 -228,0 -407,168 -407,407zm-864 105c0,202 77,301 259,301 171,0 273,-121 304,-196l3 0c0,0 -3,28 -3,62l0 115 102 0 0 -775 -105 0 0 371c0,168 -109,324 -287,324 -149,0 -168,-108 -168,-230l0 -465 -105 0 0 493zm-378 99c0,169 115,189 179,189 20,0 39,-3 39,-3l0 -94c0,0 -12,2 -26,2 -40,0 -87,-16 -87,-117l0 -878 -105 0 0 901zm-1008 -209c0,235 183,411 410,411 227,0 410,-176 410,-411 0,-229 -183,-402 -410,-402 -227,0 -410,173 -410,402zm108 0c0,-175 136,-306 302,-306 167,0 302,131 302,306 0,181 -135,317 -302,317 -166,0 -302,-136 -302,-317zm-797 298c0,0 98,113 286,113 156,0 266,-91 266,-218 0,-256 -418,-209 -418,-381 0,-86 75,-120 154,-120 128,0 194,71 194,71l48 -80c0,0 -76,-85 -239,-85 -140,0 -265,76 -265,214 0,253 418,212 418,381 0,82 -73,124 -156,124 -145,0 -231,-94 -231,-94l-57 75zm19931 -4476c-25,168 -101,316 -228,443 -160,159 -353,238 -578,238 -226,0 -419,-79 -579,-238 -127,-127 -202,-275 -228,-443l-10 0 0 -136 0 -1395 -409 0c-226,0 -418,-80 -577,-239 -160,-158 -240,-352 -240,-578 0,-226 80,-418 240,-577 159,-159 351,-240 577,-240l409 0c0,-226 79,-418 238,-577l8 -7 7 -8 8 -7 8 -7 7 -7 8 -7 8 -6 8 -7 8 -6 8 -7 8 -6 8 -6 8 -6 8 -6 8 -6 8 -5 9 -6 8 -5 8 -6 9 -5 8 -5 9 -5 8 -5 9 -5 9 -4 8 -5 9 -4 9 -4 9 -5 9 -4 9 -4 9 -3 9 -4 9 -4 0 0 9 -3 9 -4 9 -3 10 -3 9 -3 0 0 10 -3 0 0 9 -3 0 0 10 -2 9 -3 10 -2 9 -2 10 -3 0 0 10 -2 9 -2 0 0 10 -1 10 -2 0 0 10 -2 10 -1 0 0 10 -2 0 0 10 -1 10 -1 10 -1 11 -1 0 0 10 -1 10 0 11 -1 0 0 10 0 0 0 10 -1 1 0 10 0 0 0 11 0 0 0 10 0 0 0 11 0 0 0 10 1 0 0 10 0 1 0 10 1 10 0 10 1 0 0 11 1 10 1 10 1 10 1 0 0 10 2 0 0 10 1 10 2 0 0 10 2 10 1 0 0 9 2 10 2 0 0 10 3 10 2 9 2 10 3 9 2 0 0 10 3 0 0 9 3 0 0 9 3 10 3 9 3 9 4 9 3 0 0 9 4 9 4 9 3 9 4 9 4 9 5 9 4 9 4 8 5 9 4 9 5 8 5 9 5 8 5 9 5 8 6 9 5 8 6 8 5 8 6 8 6 8 6 9 6 8 6 8 7 7 6 8 7 8 6 8 7 8 7 7 7 8 7 8 8 7 7c159,159 238,351 238,577l1286 0c226,0 418,81 578,240 159,159 239,351 239,577 0,226 -80,419 -239,578 -160,159 -352,239 -578,239l-1286 0 0 1395 0 136 -10 0zm-712 2476c-226,0 -418,-80 -579,-239 -158,-158 -238,-351 -238,-577 0,-227 80,-419 238,-578 161,-159 353,-239 579,-239 226,0 418,80 578,239 159,159 239,351 239,578 0,226 -80,419 -239,577 -160,159 -352,239 -578,239zm-6141 -4926c477,-476 1055,-715 1735,-715 678,0 1256,240 1733,718 478,477 718,1055 718,1733l0 2450c0,226 -80,418 -240,579 -159,159 -351,238 -577,238 -226,0 -419,-79 -578,-238 -159,-161 -239,-353 -239,-579l0 -2450c0,-226 -79,-418 -240,-577 -158,-161 -351,-240 -577,-240 -225,0 -418,79 -578,240 -159,159 -238,351 -238,577l0 2450c0,226 -80,418 -239,579 -160,159 -353,238 -578,238 -226,0 -418,-79 -579,-238 -159,-161 -238,-353 -238,-579l0 -2450c0,-681 238,-1259 715,-1736zm-1206 4186c0,226 -79,418 -238,579 -160,159 -353,238 -578,238 -226,0 -419,-79 -579,-238 -159,-161 -238,-353 -238,-579l0 -4084c0,-226 79,-418 238,-577 160,-159 353,-240 579,-240 225,0 418,81 578,240 159,159 238,351 238,577l0 4084zm-816 -5718c-226,0 -419,-79 -579,-238 -159,-159 -238,-351 -238,-577 0,-227 79,-420 238,-579 160,-159 353,-238 579,-238 225,0 418,79 578,238 159,159 238,352 238,579 0,226 -79,418 -238,577 -160,159 -353,238 -578,238zm-12977 3676c0,-789 279,-1464 838,-2021 557,-558 1231,-838 2021,-838 789,0 1464,280 2021,838 558,557 838,1232 838,2021 0,790 -280,1464 -838,2021 -557,559 -1232,838 -2021,838 -448,0 -855,-88 -1225,-265l0 1899c0,226 -80,418 -239,577 -160,160 -352,240 -578,240 -226,0 -418,-80 -579,-240 -159,-159 -238,-351 -238,-577l0 -4493z"/>
 </g>
</svg>
