<?xml version="1.0" encoding="UTF-8" standalone="no"?>
<!-- Created with Inkscape (http://www.inkscape.org/) -->

<svg
   xmlns:dc="http://purl.org/dc/elements/1.1/"
   xmlns:cc="http://creativecommons.org/ns#"
   xmlns:rdf="http://www.w3.org/1999/02/22-rdf-syntax-ns#"
   xmlns:svg="http://www.w3.org/2000/svg"
   xmlns="http://www.w3.org/2000/svg"
   xmlns:xlink="http://www.w3.org/1999/xlink"
   xmlns:sodipodi="http://sodipodi.sourceforge.net/DTD/sodipodi-0.dtd"
   xmlns:inkscape="http://www.inkscape.org/namespaces/inkscape"
   width="68.955536mm"
   height="68.955544mm"
   viewBox="0 0 68.955536 68.955544"
   version="1.1"
   id="svg1221"
   inkscape:version="0.92.1 r15371"
   sodipodi:docname="logo_color.svg">
  <defs
     id="defs1215">
    <linearGradient
       inkscape:collect="always"
       xlink:href="#linearGradient821-1"
       id="linearGradient4642"
       gradientUnits="userSpaceOnUse"
       gradientTransform="matrix(0.34295032,0,0,0.9873132,40.842565,176.07666)"
       x1="193.50316"
       y1="85.58979"
       x2="393.95532"
       y2="128.35292" />
    <linearGradient
       inkscape:collect="always"
       id="linearGradient821-1">
      <stop
         style="stop-color:#801e7e;stop-opacity:1"
         offset="0"
         id="stop817" />
      <stop
         id="stop4541"
         offset="0.28562057"
         style="stop-color:#ff0051;stop-opacity:1" />
      <stop
         id="stop4539"
         offset="0.47482604"
         style="stop-color:#f9a953;stop-opacity:1" />
      <stop
         id="stop4537"
         offset="0.75237292"
         style="stop-color:#28dfef;stop-opacity:1" />
      <stop
         style="stop-color:#00c8f4;stop-opacity:1"
         offset="1"
         id="stop819" />
    </linearGradient>
    <clipPath
       clipPathUnits="userSpaceOnUse"
       id="clipPath1189">
      <ellipse
         cy="260.65854"
         cx="-174.29836"
         id="circle1191"
         style="opacity:1;fill:#000000;fill-opacity:1;fill-rule:evenodd;stroke:none;stroke-width:2.00001407;stroke-linecap:square;stroke-linejoin:miter;stroke-miterlimit:4;stroke-dasharray:none;stroke-dashoffset:0;stroke-opacity:1;paint-order:markers stroke fill"
         rx="34.549049"
         ry="34.407124"
         transform="matrix(0.50102945,-0.86543024,0.86661854,0.49897125,0,0)" />
    </clipPath>
  </defs>
  <sodipodi:namedview
     id="base"
     pagecolor="#ffffff"
     bordercolor="#666666"
     borderopacity="1.0"
     inkscape:pageopacity="0.0"
     inkscape:pageshadow="2"
     inkscape:zoom="0.35"
     inkscape:cx="-316.83319"
     inkscape:cy="58.881116"
     inkscape:document-units="mm"
     inkscape:current-layer="layer1"
     showgrid="false"
     fit-margin-top="0"
     fit-margin-left="0"
     fit-margin-right="0"
     fit-margin-bottom="0"
     inkscape:window-width="1280"
     inkscape:window-height="961"
     inkscape:window-x="-8"
     inkscape:window-y="-8"
     inkscape:window-maximized="1" />
  <metadata
     id="metadata1218">
    <rdf:RDF>
      <cc:Work
         rdf:about="">
        <dc:format>image/svg+xml</dc:format>
        <dc:type
           rdf:resource="http://purl.org/dc/dcmitype/StillImage" />
        <dc:title></dc:title>
      </cc:Work>
    </rdf:RDF>
  </metadata>
  <g
     inkscape:label="Capa 1"
     inkscape:groupmode="layer"
     id="layer1"
     transform="translate(-50.188901,-95.456755)">
    <rect
       transform="matrix(0.49794321,0.86720963,-0.86483301,0.5020596,258.60542,-131.25921)"
       y="238.15091"
       x="102.98817"
       height="83.913445"
       width="72.594856"
       id="rect4640"
       style="display:inline;opacity:1;fill:url(#linearGradient4642);fill-opacity:1;stroke:none;stroke-width:0.46187752;stroke-linecap:round;stroke-linejoin:round;stroke-miterlimit:4;stroke-dasharray:none;stroke-opacity:1;paint-order:fill markers stroke"
       clip-path="url(#clipPath1189)"
       inkscape:export-filename="D:\repo_local_point\proyect_sever\web\img\logo_color.png"
       inkscape:export-xdpi="93.930099"
       inkscape:export-ydpi="93.930099" />
    <g
       style="clip-rule:evenodd;display:inline;fill-rule:evenodd;image-rendering:optimizeQuality;shape-rendering:geometricPrecision;text-rendering:geometricPrecision"
       id="g1489"
       transform="matrix(0.00234236,0,0,0.00234236,57.614722,115.22332)"
       inkscape:export-filename="D:\repo_local_point\proyect_sever\web\img\logo_color.png"
       inkscape:export-xdpi="93.930099"
       inkscape:export-ydpi="93.930099">
      <g
         id="Capa_x0020_1-2">
        <metadata
           id="CorelCorpID_0Corel-Layer-0" />
        <path
           id="path1476"
           d="m 2859,6533 c 337,0 626,-119 866,-359 239,-240 359,-529 359,-866 0,-337 -120,-626 -359,-866 -240,-239 -529,-359 -866,-359 -337,0 -626,120 -866,359 -239,240 -359,529 -359,866 0,337 120,626 359,866 240,240 529,359 866,359 z m 6463,-344 c -541,204 -1147,-70 -1351,-611 -204,-541 71,-1146 612,-1351 540,-203 1146,71 1350,612 204,541 -70,1147 -611,1350 z m 799,-3564 c -699,-315 -1479,-341 -2197,-70 -718,271 -1287,805 -1604,1503 -1352,2989 2535,4815 4497,6171 578,-2313 2291,-6251 -696,-7604 z m 10722,7465 c 0,0 99,113 287,113 156,0 265,-91 265,-218 0,-256 -417,-209 -417,-381 0,-86 75,-120 154,-120 128,0 194,71 194,71 l 48,-80 c 0,0 -76,-85 -239,-85 -141,0 -265,76 -265,214 0,253 417,212 417,381 0,82 -72,124 -155,124 -145,0 -232,-94 -232,-94 z m -953,-298 c 0,235 184,411 411,411 226,0 410,-176 410,-411 0,-229 -184,-402 -410,-402 -227,0 -411,173 -411,402 z m 108,0 c 0,-175 136,-306 303,-306 166,0 302,131 302,306 0,181 -136,317 -302,317 -167,0 -303,-136 -303,-317 z m -411,-561 h 109 v -131 h -109 z m 3,953 h 105 v -775 h -105 z m -549,0 h 105 v -327 c 0,-49 6,-102 21,-151 34,-114 116,-200 225,-200 20,0 39,3 39,3 v -104 c 0,0 -20,-4 -42,-4 -122,0 -208,89 -245,206 h -3 c 0,0 3,-27 3,-61 v -137 h -103 z m -1017,-392 c 0,235 184,411 411,411 226,0 410,-176 410,-411 0,-229 -184,-402 -410,-402 -227,0 -411,173 -411,402 z m 108,0 c 0,-175 136,-306 303,-306 166,0 302,131 302,306 0,181 -136,317 -302,317 -167,0 -303,-136 -303,-317 z m -797,298 c 0,0 99,113 287,113 156,0 265,-91 265,-218 0,-256 -418,-209 -418,-381 0,-86 76,-120 155,-120 128,0 194,71 194,71 l 48,-80 c 0,0 -76,-85 -239,-85 -141,0 -266,76 -266,214 0,253 418,212 418,381 0,82 -72,124 -155,124 -145,0 -232,-94 -232,-94 z m -843,-293 c 0,239 174,406 405,406 175,0 287,-108 287,-108 l -48,-80 c 0,0 -94,94 -236,94 -160,0 -296,-108 -300,-307 h 595 c 0,0 3,-36 3,-54 0,-193 -110,-358 -324,-358 -210,0 -382,153 -382,407 z m 112,-82 c 25,-155 137,-237 267,-237 116,0 214,75 221,237 z m -959,82 c 0,241 177,406 407,406 198,0 302,-122 302,-122 l -47,-82 c 0,0 -91,110 -249,110 -171,0 -305,-130 -305,-312 0,-185 133,-311 302,-311 141,0 227,94 227,94 l 54,-79 c 0,0 -94,-111 -284,-111 -228,0 -407,168 -407,407 z m -846,0 c 0,241 177,406 407,406 197,0 302,-122 302,-122 l -48,-82 c 0,0 -91,110 -248,110 -171,0 -306,-130 -306,-312 0,-185 133,-311 303,-311 140,0 226,94 226,94 l 54,-79 c 0,0 -94,-111 -283,-111 -229,0 -407,168 -407,407 z m -812,176 c 0,154 135,230 264,230 194,0 259,-168 259,-168 h 3 c 0,0 -3,26 -3,64 v 85 h 100 v -496 c 0,-195 -103,-298 -290,-298 -174,0 -276,88 -276,88 l 50,80 c 0,0 91,-74 219,-74 111,0 193,51 193,201 v 20 h -44 c -134,0 -475,6 -475,268 z m 108,-6 c 0,-171 244,-176 366,-176 h 45 v 34 c 0,134 -90,288 -238,288 -116,0 -173,-74 -173,-146 z m -1374,217 h 105 v -371 c 0,-37 3,-73 13,-105 35,-128 149,-219 282,-219 149,0 168,108 168,230 v 465 h 105 v -493 c 0,-191 -68,-301 -259,-301 -184,0 -282,125 -310,196 h -3 c 0,0 3,-28 3,-62 v -115 h -104 z m -906,-387 c 0,239 174,406 405,406 175,0 287,-108 287,-108 l -48,-80 c 0,0 -94,94 -236,94 -160,0 -296,-108 -300,-307 h 595 c 0,0 3,-36 3,-54 0,-193 -109,-358 -324,-358 -210,0 -382,153 -382,407 z m 112,-82 c 25,-155 137,-237 267,-237 116,0 214,75 221,237 z m -3146,375 c 0,0 99,113 287,113 156,0 265,-91 265,-218 0,-256 -418,-209 -418,-381 0,-86 76,-120 155,-120 128,0 194,71 194,71 l 48,-80 c 0,0 -76,-85 -239,-85 -141,0 -266,76 -266,214 0,253 418,212 418,381 0,82 -72,124 -155,124 -145,0 -232,-94 -232,-94 z m -843,-293 c 0,239 174,406 405,406 175,0 287,-108 287,-108 l -48,-80 c 0,0 -94,94 -236,94 -160,0 -296,-108 -300,-307 h 595 c 0,0 3,-36 3,-54 0,-193 -110,-358 -324,-358 -210,0 -382,153 -382,407 z m 112,-82 c 25,-155 138,-237 267,-237 116,0 214,75 221,237 z m -973,469 h 105 v -371 c 0,-37 3,-73 12,-105 36,-128 150,-219 283,-219 149,0 168,108 168,230 v 465 h 105 v -493 c 0,-191 -68,-301 -260,-301 -183,0 -282,125 -309,196 h -4 c 0,0 4,-28 4,-62 V 9409 H 7077 Z M 6061,9792 c 0,235 184,411 410,411 227,0 410,-176 410,-411 0,-229 -183,-402 -410,-402 -226,0 -410,173 -410,402 z m 108,0 c 0,-175 136,-306 302,-306 167,0 302,131 302,306 0,181 -135,317 -302,317 -166,0 -302,-136 -302,-317 z m -412,-561 h 110 v -131 h -110 z m 3,953 h 105 v -775 h -105 z m -900,-387 c 0,241 177,406 407,406 197,0 302,-122 302,-122 l -48,-82 c 0,0 -91,110 -248,110 -171,0 -305,-130 -305,-312 0,-185 132,-311 302,-311 140,0 227,94 227,94 l 54,-79 c 0,0 -94,-111 -284,-111 -228,0 -407,168 -407,407 z m -864,105 c 0,202 77,301 259,301 171,0 273,-121 304,-196 h 3 c 0,0 -3,28 -3,62 v 115 h 102 v -775 h -105 v 371 c 0,168 -109,324 -287,324 -149,0 -168,-108 -168,-230 v -465 h -105 z m -378,99 c 0,169 115,189 179,189 20,0 39,-3 39,-3 v -94 c 0,0 -12,2 -26,2 -40,0 -87,-16 -87,-117 V 9100 H 3618 Z M 2610,9792 c 0,235 183,411 410,411 227,0 410,-176 410,-411 0,-229 -183,-402 -410,-402 -227,0 -410,173 -410,402 z m 108,0 c 0,-175 136,-306 302,-306 167,0 302,131 302,306 0,181 -135,317 -302,317 -166,0 -302,-136 -302,-317 z m -797,298 c 0,0 98,113 286,113 156,0 266,-91 266,-218 0,-256 -418,-209 -418,-381 0,-86 75,-120 154,-120 128,0 194,71 194,71 l 48,-80 c 0,0 -76,-85 -239,-85 -140,0 -265,76 -265,214 0,253 418,212 418,381 0,82 -73,124 -156,124 -145,0 -231,-94 -231,-94 z M 21852,5614 c -25,168 -101,316 -228,443 -160,159 -353,238 -578,238 -226,0 -419,-79 -579,-238 -127,-127 -202,-275 -228,-443 h -10 V 5478 4083 h -409 c -226,0 -418,-80 -577,-239 -160,-158 -240,-352 -240,-578 0,-226 80,-418 240,-577 159,-159 351,-240 577,-240 h 409 c 0,-226 79,-418 238,-577 l 8,-7 7,-8 8,-7 8,-7 7,-7 8,-7 8,-6 8,-7 8,-6 8,-7 8,-6 8,-6 8,-6 8,-6 8,-6 8,-5 9,-6 8,-5 8,-6 9,-5 8,-5 9,-5 8,-5 9,-5 9,-4 8,-5 9,-4 9,-4 9,-5 9,-4 9,-4 9,-3 9,-4 9,-4 v 0 l 9,-3 9,-4 9,-3 10,-3 9,-3 v 0 l 10,-3 v 0 l 9,-3 v 0 l 10,-2 9,-3 10,-2 9,-2 10,-3 v 0 l 10,-2 9,-2 v 0 l 10,-1 10,-2 v 0 l 10,-2 10,-1 v 0 l 10,-2 v 0 l 10,-1 10,-1 10,-1 11,-1 v 0 l 10,-1 h 10 l 11,-1 v 0 h 10 v 0 l 10,-1 h 1 10 v 0 h 11 v 0 h 10 v 0 h 11 v 0 l 10,1 v 0 h 10 1 l 10,1 h 10 l 10,1 v 0 l 11,1 10,1 10,1 10,1 v 0 l 10,2 v 0 l 10,1 10,2 v 0 l 10,2 10,1 v 0 l 9,2 10,2 v 0 l 10,3 10,2 9,2 10,3 9,2 v 0 l 10,3 v 0 l 9,3 v 0 l 9,3 10,3 9,3 9,4 9,3 v 0 l 9,4 9,4 9,3 9,4 9,4 9,5 9,4 9,4 8,5 9,4 9,5 8,5 9,5 8,5 9,5 8,6 9,5 8,6 8,5 8,6 8,6 8,6 9,6 8,6 8,7 7,6 8,7 8,6 8,7 8,7 7,7 8,7 8,8 7,7 c 159,159 238,351 238,577 h 1286 c 226,0 418,81 578,240 159,159 239,351 239,577 0,226 -80,419 -239,578 -160,159 -352,239 -578,239 h -1286 v 1395 136 z m -712,2476 c -226,0 -418,-80 -579,-239 -158,-158 -238,-351 -238,-577 0,-227 80,-419 238,-578 161,-159 353,-239 579,-239 226,0 418,80 578,239 159,159 239,351 239,578 0,226 -80,419 -239,577 -160,159 -352,239 -578,239 z M 14999,3164 c 477,-476 1055,-715 1735,-715 678,0 1256,240 1733,718 478,477 718,1055 718,1733 v 2450 c 0,226 -80,418 -240,579 -159,159 -351,238 -577,238 -226,0 -419,-79 -578,-238 -159,-161 -239,-353 -239,-579 V 4900 c 0,-226 -79,-418 -240,-577 -158,-161 -351,-240 -577,-240 -225,0 -418,79 -578,240 -159,159 -238,351 -238,577 v 2450 c 0,226 -80,418 -239,579 -160,159 -353,238 -578,238 -226,0 -418,-79 -579,-238 -159,-161 -238,-353 -238,-579 V 4900 c 0,-681 238,-1259 715,-1736 z m -1206,4186 c 0,226 -79,418 -238,579 -160,159 -353,238 -578,238 -226,0 -419,-79 -579,-238 -159,-161 -238,-353 -238,-579 V 3266 c 0,-226 79,-418 238,-577 160,-159 353,-240 579,-240 225,0 418,81 578,240 159,159 238,351 238,577 z m -816,-5718 c -226,0 -419,-79 -579,-238 -159,-159 -238,-351 -238,-577 0,-227 79,-420 238,-579 160,-159 353,-238 579,-238 225,0 418,79 578,238 159,159 238,352 238,579 0,226 -79,418 -238,577 -160,159 -353,238 -578,238 z M 0,5308 c 0,-789 279,-1464 838,-2021 557,-558 1231,-838 2021,-838 789,0 1464,280 2021,838 558,557 838,1232 838,2021 0,790 -280,1464 -838,2021 -557,559 -1232,838 -2021,838 -448,0 -855,-88 -1225,-265 v 1899 c 0,226 -80,418 -239,577 -160,160 -352,240 -578,240 -226,0 -418,-80 -579,-240 C 79,10219 0,10027 0,9801 Z"
           class="fil0"
           inkscape:connector-curvature="0"
           style="fill:#fefefe" />
      </g>
    </g>
  </g>
</svg>
